<?xml version="1.0" standalone="no"?>
<!DOCTYPE svg PUBLIC "-//W3C//DTD SVG 20010904//EN"
 "http://www.w3.org/TR/2001/REC-SVG-20010904/DTD/svg10.dtd">
<svg version="1.0" xmlns="http://www.w3.org/2000/svg"
 width="221.000000pt" height="221.000000pt" viewBox="0 0 221.000000 221.000000"
 preserveAspectRatio="xMidYMid meet">
<metadata>
Created by potrace 1.14, written by Peter Selinger 2001-2017
</metadata>
<g transform="translate(0.000000,221.000000) scale(0.100000,-0.100000)"
fill="#000000" stroke="none">
<path d="M335 2031 c-29 -13 -312 -257 -325 -280 -7 -13 -10 -270 -10 -766 0
-806 -1 -794 52 -809 13 -3 236 -6 496 -6 631 0 613 -4 824 173 193 161 243
211 269 269 23 51 24 62 24 288 0 226 -1 237 -24 287 -28 64 -91 124 -153 147
l-46 18 20 20 c40 40 61 108 66 214 5 113 -9 218 -38 274 -31 61 -113 127
-188 152 -65 22 -82 22 -507 25 -242 1 -449 -2 -460 -6z m875 -22 c121 -19
219 -79 261 -161 48 -93 50 -320 4 -415 -15 -30 -39 -60 -58 -72 -22 -14 -27
-21 -17 -24 8 -3 34 -10 57 -16 66 -18 124 -68 158 -136 l30 -60 0 -225 c0
-216 -1 -227 -24 -278 -33 -73 -105 -136 -189 -164 -65 -22 -81 -22 -573 -26
-490 -3 -506 -3 -530 17 l-24 19 -3 731 c-1 402 1 746 6 764 5 18 18 37 33 44
31 16 772 18 869 2z"/>
<path d="M800 1525 l0 -115 114 0 c112 0 115 1 135 26 30 38 30 140 0 178 -20
25 -23 26 -135 26 l-114 0 0 -115z"/>
<path d="M800 941 l0 -131 163 0 c200 0 200 0 205 119 4 71 2 80 -21 107 l-25
29 -161 3 -161 3 0 -130z"/>
<path d="M1823 666 l-73 -61 0 -142 c0 -130 2 -143 19 -153 11 -5 73 -10 138
-10 131 0 126 -2 222 79 l54 46 -139 5 -139 5 -5 146 -5 146 -72 -61z"/>
<path d="M2202 588 c-1 -69 -5 -135 -8 -145 -5 -16 -5 -17 6 -1 7 11 9 64 7
145 l-3 128 -2 -127z"/>
<path d="M2033 583 c15 -2 39 -2 55 0 15 2 2 4 -28 4 -30 0 -43 -2 -27 -4z"/>
</g>
</svg>
