<svg width="40" height="33" viewBox="0 0 40 33" fill="none" xmlns="http://www.w3.org/2000/svg">
<path d="M2.48696 1.72337C4.60554 4.29724 7.25125 6.39625 10.2492 7.88166C13.2472 9.36707 16.5292 10.2051 19.8783 10.3402C19.4261 8.51347 19.3913 3.55015 22.9043 1.4821C24.3324 0.551832 25.9958 0.0382507 27.7043 0C28.8193 0.00250366 29.9217 0.233439 30.9422 0.678301C31.9628 1.12316 32.8795 1.77234 33.6348 2.58506C35.4652 2.19898 37.2249 1.53636 38.8522 0.620415C38.2809 2.46992 37.0428 4.04646 35.3739 5.04949C36.9666 4.91293 38.5277 4.5291 40 3.91206C38.8918 5.54827 37.4886 6.96794 35.8609 8.09986C37.0957 19.0778 27.1652 32.7269 13.0435 32.7269C8.4632 32.7517 3.95964 31.5616 0 29.2801C2.15882 29.5465 4.34967 29.3785 6.44145 28.7862C8.53323 28.194 10.4829 27.1897 12.1739 25.8334C10.3031 25.7243 8.49951 25.1026 6.96419 24.0376C5.42888 22.9726 4.22208 21.5062 3.47826 19.8016C5.21739 20.3531 6.86956 20.6288 7.82609 19.8016C5.87213 19.3089 4.12956 18.2072 2.8552 16.659C1.58084 15.1107 0.842089 13.1977 0.747826 11.2019C1.3224 11.7586 2.00224 12.1974 2.74834 12.4932C3.49445 12.7889 4.29214 12.9358 5.09565 12.9253C3.34567 11.7037 2.11189 9.88536 1.63056 7.81846C1.14922 5.75157 1.45415 3.58136 2.48696 1.72337V1.72337Z" fill="white"/>
</svg>
